# MagicaVoxel @ Ephtracy

# group
o 

# material
mtllib lighton.mtl
usemtl palette

# normals
vn -1 0 0
vn 1 0 0
vn 0 0 1
vn 0 0 -1
vn 0 -1 0
vn 0 1 0

# texcoords
vt 0.00195312 0.5
vt 0.978516 0.5
vt 0.986328 0.5
vt 0.994141 0.5

# verts
v 0 2 0
v 0 2 -2.3
v 0 2.1 0
v 0 2.1 -2.3
v 0.1 2.1 -0.1
v 0.1 2.1 -2.2
v 0.1 2.2 -0.1
v 0.1 2.2 -2.2
v 0.2 2.2 -0.2
v 0.2 2.2 -2.1
v 0.2 2.3 -0.2
v 0.2 2.3 -2.1
v 0.8 2.2 -0.2
v 0.8 2.2 -2.1
v 0.8 2.3 -0.2
v 0.8 2.3 -2.1
v 0.9 2.1 -0.1
v 0.9 2.1 -2.2
v 0.9 2.2 -0.1
v 0.9 2.2 -2.2
v 1 2 0
v 1 2 -2.3
v 1 2.1 0
v 1 2.1 -2.3
v 0 2 0
v 0 2.1 0
v 1 2 0
v 1 2.1 0
v 0.1 2.1 -0.1
v 0.1 2.2 -0.1
v 0.9 2.1 -0.1
v 0.9 2.2 -0.1
v 0.2 2.2 -0.2
v 0.2 2.3 -0.2
v 0.8 2.2 -0.2
v 0.8 2.3 -0.2
v 0.2 2.2 -2.1
v 0.2 2.3 -2.1
v 0.8 2.2 -2.1
v 0.8 2.3 -2.1
v 0.1 2.1 -2.2
v 0.1 2.2 -2.2
v 0.9 2.1 -2.2
v 0.9 2.2 -2.2
v 0 2 -2.3
v 0 2.1 -2.3
v 1 2 -2.3
v 1 2.1 -2.3
v 0 2 0
v 1 2 0
v 0 2 -2.3
v 1 2 -2.3
v 0 2.1 0
v 1 2.1 0
v 0.1 2.1 -0.1
v 0.9 2.1 -0.1
v 0.1 2.1 -2.2
v 0.9 2.1 -2.2
v 0 2.1 -2.3
v 1 2.1 -2.3
v 0.1 2.2 -0.1
v 0.9 2.2 -0.1
v 0.2 2.2 -0.2
v 0.8 2.2 -0.2
v 0.2 2.2 -2.1
v 0.8 2.2 -2.1
v 0.1 2.2 -2.2
v 0.9 2.2 -2.2
v 0.2 2.3 -0.2
v 0.8 2.3 -0.2
v 0.3 2.3 -0.3
v 0.7 2.3 -0.3
v 0.3 2.3 -2
v 0.7 2.3 -2
v 0.2 2.3 -2.1
v 0.8 2.3 -2.1

# faces
f 3/4/1 2/4/1 1/4/1
f 4/4/1 2/4/1 3/4/1
f 7/3/1 6/3/1 5/3/1
f 8/3/1 6/3/1 7/3/1
f 11/3/1 10/3/1 9/3/1
f 12/3/1 10/3/1 11/3/1
f 13/3/2 14/3/2 15/3/2
f 15/3/2 14/3/2 16/3/2
f 17/3/2 18/3/2 19/3/2
f 19/3/2 18/3/2 20/3/2
f 21/4/2 22/4/2 23/4/2
f 23/4/2 22/4/2 24/4/2
f 27/4/3 26/4/3 25/4/3
f 28/4/3 26/4/3 27/4/3
f 31/3/3 30/3/3 29/3/3
f 32/3/3 30/3/3 31/3/3
f 35/3/3 34/3/3 33/3/3
f 36/3/3 34/3/3 35/3/3
f 37/3/4 38/3/4 39/3/4
f 39/3/4 38/3/4 40/3/4
f 41/3/4 42/3/4 43/3/4
f 43/3/4 42/3/4 44/3/4
f 45/4/4 46/4/4 47/4/4
f 47/4/4 46/4/4 48/4/4
f 51/4/5 50/4/5 49/4/5
f 52/4/5 50/4/5 51/4/5
f 53/4/6 54/4/6 55/4/6
f 55/4/6 54/4/6 56/4/6
f 53/4/6 55/4/6 57/4/6
f 56/4/6 54/4/6 58/4/6
f 53/4/6 57/4/6 59/4/6
f 57/4/6 58/4/6 59/4/6
f 58/4/6 54/4/6 60/4/6
f 59/4/6 58/4/6 60/4/6
f 61/3/6 62/3/6 63/3/6
f 63/3/6 62/3/6 64/3/6
f 61/3/6 63/3/6 65/3/6
f 64/3/6 62/3/6 66/3/6
f 61/3/6 65/3/6 67/3/6
f 65/3/6 66/3/6 67/3/6
f 66/3/6 62/3/6 68/3/6
f 67/3/6 66/3/6 68/3/6
f 69/3/6 70/3/6 71/3/6
f 71/3/6 70/3/6 72/3/6
f 69/3/6 71/3/6 73/3/6
f 71/1/6 72/1/6 73/1/6
f 72/3/6 70/3/6 74/3/6
f 73/1/6 72/1/6 74/1/6
f 69/3/6 73/3/6 75/3/6
f 73/3/6 74/3/6 75/3/6
f 74/3/6 70/3/6 76/3/6
f 75/3/6 74/3/6 76/3/6
